# xmcd
#
# Track frame offsets:
#	150
#	19068
#	36465
#	65215
#	92750
#	122825
#
# Disc length: 2021 seconds
# Revision: 0
# Processed by: cddbd v1.5.2PL0 Copyright (c) Steve Scherf et al.
# Submitted via: dBpowerAMP V12.0
#
DISCID=5307e306
DTITLE=Tyler Collins - Girls Nite Out
DYEAR=1990
DGENRE=New Jill Swing
TTITLE0=Girls Nite Out [Radio Mix]
TTITLE1=Girls Nite Out [Remix Edit]
TTITLE2=Girls Nite Out [T.C. In Effect]
TTITLE3=Girls Nite Out [Soul IV Seoul Bite]
TTITLE4=Girls Nite Out [Condo Mix]
TTITLE5=Girls Nite Out [Full Force House Mix]
EXTD=
EXTT0=
EXTT1=
EXTT2=
EXTT3=
EXTT4=
EXTT5=
PLAYORDER=
